<svg xmlns="http://www.w3.org/2000/svg" width="26" height="36"><defs><clipPath id="a"><path fill="#fff" d="M7.615 1.03l.707-.708 16.97 16.971L26 18l-.707.707-16.97 16.97-.708-.706L24.585 18z"/></clipPath><clipPath id="b"><path fill="#fff" d="M.615 1.03l.707-.708 16.97 16.971L19 18l-.707.707-16.97 16.97-.708-.706L17.585 18z"/></clipPath></defs><path fill="none" stroke="#bb9c66" stroke-miterlimit="20" stroke-width="2" d="M7.615 1.03l.707-.708 16.97 16.971h0L26 18l-.707.707h0l-16.97 16.97-.708-.706L24.585 18z" clip-path="url(&quot;#a&quot;)"/><path fill="none" stroke="#bb9c66" stroke-miterlimit="20" stroke-width="2" d="M.615 1.03l.707-.708 16.97 16.971h0L19 18l-.707.707h0l-16.97 16.97-.708-.706L17.585 18z" clip-path="url(&quot;#b&quot;)"/></svg>